<svg width="36" height="36" viewBox="0 0 36 36" fill="none" xmlns="http://www.w3.org/2000/svg">
<path d="M32 15.536C32 23.1776 25.8052 29.3724 18.1636 29.3724C10.5219 29.3724 4.32715 23.1776 4.32715 15.536C4.32715 7.89435 6.48909 5.59106 18.1636 5.59106C29.4057 5.59106 32 7.89435 32 15.536Z" fill="url(#paint0_linear_2200_2478)"/>
<path d="M30.0519 15.7974C30.0519 22.0547 24.7292 27.1273 18.1634 27.1273C11.5976 27.1273 6.2749 22.0547 6.2749 15.7974C6.2749 9.54008 8.13248 7.65405 18.1634 7.65405C27.8228 7.65405 30.0519 9.54008 30.0519 15.7974Z" fill="url(#paint1_radial_2200_2478)"/>
<path d="M14.5433 12.0385C15.3875 12.0385 16.0719 11.3541 16.0719 10.5098C16.0719 9.6656 15.3875 8.9812 14.5433 8.9812C13.699 8.9812 13.0146 9.6656 13.0146 10.5098C13.0146 11.3541 13.699 12.0385 14.5433 12.0385Z" fill="url(#paint2_linear_2200_2478)"/>
<circle cx="14.5429" cy="10.511" r="1.00669" fill="url(#paint3_radial_2200_2478)" fill-opacity="0.8"/>
<path d="M17.9654 12.0385C18.8097 12.0385 19.4941 11.3541 19.4941 10.5098C19.4941 9.6656 18.8097 8.9812 17.9654 8.9812C17.1212 8.9812 16.4368 9.6656 16.4368 10.5098C16.4368 11.3541 17.1212 12.0385 17.9654 12.0385Z" fill="url(#paint4_linear_2200_2478)"/>
<circle cx="17.9649" cy="10.5108" r="1.00669" fill="url(#paint5_radial_2200_2478)" fill-opacity="0.8"/>
<path d="M17.9654 15.4611C18.8097 15.4611 19.4941 14.7767 19.4941 13.9325C19.4941 13.0882 18.8097 12.4038 17.9654 12.4038C17.1212 12.4038 16.4368 13.0882 16.4368 13.9325C16.4368 14.7767 17.1212 15.4611 17.9654 15.4611Z" fill="url(#paint6_linear_2200_2478)"/>
<circle cx="17.9649" cy="13.9339" r="1.00669" fill="url(#paint7_radial_2200_2478)" fill-opacity="0.8"/>
<path d="M21.389 12.0384C22.2332 12.0384 22.9176 11.354 22.9176 10.5097C22.9176 9.66548 22.2332 8.98108 21.389 8.98108C20.5448 8.98108 19.8604 9.66548 19.8604 10.5097C19.8604 11.354 20.5448 12.0384 21.389 12.0384Z" fill="url(#paint8_linear_2200_2478)"/>
<circle cx="21.3886" cy="10.511" r="1.00669" fill="url(#paint9_radial_2200_2478)" fill-opacity="0.8"/>
<path d="M11.5495 19.6891C13.1388 19.6891 14.4271 18.4007 14.4271 16.8115C14.4271 15.2222 13.1388 13.9338 11.5495 13.9338C9.96023 13.9338 8.67188 15.2222 8.67188 16.8115C8.67188 18.4007 9.96023 19.6891 11.5495 19.6891Z" fill="url(#paint10_linear_2200_2478)"/>
<circle cx="11.5509" cy="16.8119" r="1.67678" fill="url(#paint11_radial_2200_2478)"/>
<path d="M24.16 19.6891C25.7492 19.6891 27.0376 18.4007 27.0376 16.8115C27.0376 15.2222 25.7492 13.9338 24.16 13.9338C22.5707 13.9338 21.2823 15.2222 21.2823 16.8115C21.2823 18.4007 22.5707 19.6891 24.16 19.6891Z" fill="url(#paint12_linear_2200_2478)"/>
<circle cx="24.1614" cy="16.8119" r="1.67678" fill="url(#paint13_radial_2200_2478)"/>
<path d="M13.6753 24.2452C14.5195 24.2452 15.2039 23.5608 15.2039 22.7165C15.2039 21.8723 14.5195 21.1879 13.6753 21.1879C12.831 21.1879 12.1466 21.8723 12.1466 22.7165C12.1466 23.5608 12.831 24.2452 13.6753 24.2452Z" fill="url(#paint14_linear_2200_2478)"/>
<circle cx="13.6749" cy="22.7177" r="1.00669" fill="url(#paint15_radial_2200_2478)" fill-opacity="0.8"/>
<path d="M22.435 24.2476C23.2793 24.2476 23.9637 23.5632 23.9637 22.719C23.9637 21.8747 23.2793 21.1903 22.435 21.1903C21.5908 21.1903 20.9064 21.8747 20.9064 22.719C20.9064 23.5632 21.5908 24.2476 22.435 24.2476Z" fill="url(#paint16_linear_2200_2478)"/>
<circle cx="22.4347" cy="22.7201" r="1.00669" fill="url(#paint17_radial_2200_2478)" fill-opacity="0.8"/>
<path d="M18.0572 25.0145C19.3259 25.0145 20.3543 23.986 20.3543 22.7174C20.3543 21.4487 19.3259 20.4203 18.0572 20.4203C16.7886 20.4203 15.7601 21.4487 15.7601 22.7174C15.7601 23.986 16.7886 25.0145 18.0572 25.0145Z" fill="url(#paint18_linear_2200_2478)"/>
<circle cx="18.0595" cy="22.7172" r="1.33851" fill="url(#paint19_radial_2200_2478)" fill-opacity="0.8"/>
<defs>
<linearGradient id="paint0_linear_2200_2478" x1="3.12306" y1="8.26808" x2="16.0864" y2="38.1648" gradientUnits="userSpaceOnUse">
<stop stop-color="#98A2B3"/>
<stop offset="1" stop-color="#E4E7EC"/>
</linearGradient>
<radialGradient id="paint1_radial_2200_2478" cx="0" cy="0" r="1" gradientUnits="userSpaceOnUse" gradientTransform="translate(18.1634 17.3907) rotate(90) scale(9.73661 11.8885)">
<stop stop-color="#344054"/>
<stop offset="1" stop-color="#98A2B3"/>
</radialGradient>
<linearGradient id="paint2_linear_2200_2478" x1="12.8816" y1="9.32535" x2="14.718" y2="12.9649" gradientUnits="userSpaceOnUse">
<stop stop-color="#98A2B3"/>
<stop offset="1" stop-color="#E4E7EC"/>
</linearGradient>
<radialGradient id="paint3_radial_2200_2478" cx="0" cy="0" r="1" gradientUnits="userSpaceOnUse" gradientTransform="translate(14.5429 10.511) rotate(90) scale(1.00669)">
<stop stop-color="#344054"/>
<stop offset="1" stop-color="#98A2B3"/>
</radialGradient>
<linearGradient id="paint4_linear_2200_2478" x1="16.3037" y1="9.32535" x2="18.1401" y2="12.9649" gradientUnits="userSpaceOnUse">
<stop stop-color="#98A2B3"/>
<stop offset="1" stop-color="#E4E7EC"/>
</linearGradient>
<radialGradient id="paint5_radial_2200_2478" cx="0" cy="0" r="1" gradientUnits="userSpaceOnUse" gradientTransform="translate(17.9649 10.5108) rotate(90) scale(1.00669)">
<stop stop-color="#344054"/>
<stop offset="1" stop-color="#98A2B3"/>
</radialGradient>
<linearGradient id="paint6_linear_2200_2478" x1="16.3037" y1="12.748" x2="18.1401" y2="16.3875" gradientUnits="userSpaceOnUse">
<stop stop-color="#98A2B3"/>
<stop offset="1" stop-color="#E4E7EC"/>
</linearGradient>
<radialGradient id="paint7_radial_2200_2478" cx="0" cy="0" r="1" gradientUnits="userSpaceOnUse" gradientTransform="translate(17.9649 13.9339) rotate(90) scale(1.00669)">
<stop stop-color="#344054"/>
<stop offset="1" stop-color="#98A2B3"/>
</radialGradient>
<linearGradient id="paint8_linear_2200_2478" x1="19.7273" y1="9.32523" x2="21.5637" y2="12.9648" gradientUnits="userSpaceOnUse">
<stop stop-color="#98A2B3"/>
<stop offset="1" stop-color="#E4E7EC"/>
</linearGradient>
<radialGradient id="paint9_radial_2200_2478" cx="0" cy="0" r="1" gradientUnits="userSpaceOnUse" gradientTransform="translate(21.3886 10.511) rotate(90) scale(1.00669)">
<stop stop-color="#344054"/>
<stop offset="1" stop-color="#98A2B3"/>
</radialGradient>
<linearGradient id="paint10_linear_2200_2478" x1="8.42146" y1="14.5817" x2="11.8783" y2="21.433" gradientUnits="userSpaceOnUse">
<stop stop-color="#98A2B3"/>
<stop offset="1" stop-color="#E4E7EC"/>
</linearGradient>
<radialGradient id="paint11_radial_2200_2478" cx="0" cy="0" r="1" gradientUnits="userSpaceOnUse" gradientTransform="translate(11.5509 16.8119) rotate(90) scale(1.67678)">
<stop stop-color="#344054"/>
<stop offset="1" stop-color="#98A2B3"/>
</radialGradient>
<linearGradient id="paint12_linear_2200_2478" x1="21.0319" y1="14.5817" x2="24.4888" y2="21.433" gradientUnits="userSpaceOnUse">
<stop stop-color="#98A2B3"/>
<stop offset="1" stop-color="#E4E7EC"/>
</linearGradient>
<radialGradient id="paint13_radial_2200_2478" cx="0" cy="0" r="1" gradientUnits="userSpaceOnUse" gradientTransform="translate(24.1614 16.8119) rotate(90) scale(1.67678)">
<stop stop-color="#344054"/>
<stop offset="1" stop-color="#98A2B3"/>
</radialGradient>
<linearGradient id="paint14_linear_2200_2478" x1="12.0136" y1="21.532" x2="13.8499" y2="25.1716" gradientUnits="userSpaceOnUse">
<stop stop-color="#98A2B3"/>
<stop offset="1" stop-color="#E4E7EC"/>
</linearGradient>
<radialGradient id="paint15_radial_2200_2478" cx="0" cy="0" r="1" gradientUnits="userSpaceOnUse" gradientTransform="translate(13.6749 22.7177) rotate(90) scale(1.00669)">
<stop stop-color="#344054"/>
<stop offset="1" stop-color="#98A2B3"/>
</radialGradient>
<linearGradient id="paint16_linear_2200_2478" x1="20.7733" y1="21.5345" x2="22.6097" y2="25.174" gradientUnits="userSpaceOnUse">
<stop stop-color="#98A2B3"/>
<stop offset="1" stop-color="#E4E7EC"/>
</linearGradient>
<radialGradient id="paint17_radial_2200_2478" cx="0" cy="0" r="1" gradientUnits="userSpaceOnUse" gradientTransform="translate(22.4347 22.7201) rotate(90) scale(1.00669)">
<stop stop-color="#344054"/>
<stop offset="1" stop-color="#98A2B3"/>
</radialGradient>
<linearGradient id="paint18_linear_2200_2478" x1="15.5602" y1="20.9374" x2="18.3197" y2="26.4066" gradientUnits="userSpaceOnUse">
<stop stop-color="#98A2B3"/>
<stop offset="1" stop-color="#E4E7EC"/>
</linearGradient>
<radialGradient id="paint19_radial_2200_2478" cx="0" cy="0" r="1" gradientUnits="userSpaceOnUse" gradientTransform="translate(18.0595 22.7172) rotate(90) scale(1.33851)">
<stop stop-color="#344054"/>
<stop offset="1" stop-color="#98A2B3"/>
</radialGradient>
</defs>
</svg>
